<svg xmlns="http://www.w3.org/2000/svg" xml:space="preserve" viewBox="0 0 47.5 47.5"><defs><clipPath id="a"><path d="M0 38h38V0H0v38z"/></clipPath></defs><g fill="green" clip-path="url(#a)" transform="matrix(1.25 0 0 -1.25 0 47.5)"><path d="M5 37a4 4 0 0 1-4-4V5a4 4 0 0 1 4-4h28a4 4 0 0 1 4 4v28a4 4 0 0 1-4 4H5z"/><path fill="#fff" d="M30 28.5c.64 0 1.286-.237 1.775-.725a2.518 2.518 0 0 0 0-3.55l-15.5-15.5A2.501 2.501 0 0 0 14.5 8c-.64 0-1.287.237-1.775.725l-6.5 6.5a2.518 2.518 0 0 0 0 3.55 2.518 2.518 0 0 0 3.55 0l4.725-4.75 13.725 13.75A2.502 2.502 0 0 0 30 28.5z"/></g></svg>